<svg width="56" height="56" viewBox="0 0 56 56" fill="none" xmlns="http://www.w3.org/2000/svg">
<rect x="0.193405" y="0.620544" width="55" height="55" rx="20" fill="black"/>
<path d="M47.1727 32.2048L48.1919 31.9104L47.3161 31.3117L40.7959 26.8547L40.7946 26.8531C40.7634 26.8131 40.7168 26.7531 40.6568 26.6744C40.5369 26.517 40.3635 26.2847 40.1519 25.9885C39.7285 25.3957 39.153 24.548 38.5469 23.531C37.3295 21.4884 36.0101 18.7986 35.5258 16.135C34.4591 10.2681 28.4199 7.67284 22.794 8.18428C19.9991 8.43835 17.5827 9.088 15.6623 10.3477C13.7295 11.6157 12.3359 13.4777 11.555 16.0808C10.7785 18.6691 10.7064 21.8795 10.9951 24.9488C11.2845 28.0247 11.9409 31.0056 12.6554 33.1564C13.3694 35.3052 15.1386 39.145 16.714 42.42C17.5046 44.0637 18.2511 45.5747 18.7999 46.6748C19.0744 47.2249 19.2994 47.6723 19.4559 47.9824C19.5342 48.1374 19.5953 48.2581 19.6369 48.3401L19.6844 48.4335L19.6965 48.4574L19.6996 48.4635L19.7004 48.465L19.7006 48.4654C19.7007 48.4655 19.7007 48.4656 20.1462 48.2386L19.7007 48.4656L20.042 49.1355L20.5278 48.5616L24.1272 44.3095L30.3323 48.1256L30.8665 48.4542L31.0678 47.8602L32.5805 43.3947L38.9749 44.1551L39.6924 44.2404L39.5194 43.5388L38.0668 37.6498L45.1404 37.1526L46.1336 37.0828L45.4844 36.3279L42.9803 33.4158L47.1727 32.2048Z" fill="white" stroke="black"/>
<ellipse cx="19.0187" cy="22.8289" rx="2.5" ry="3.5" transform="rotate(-8.40677 19.0187 22.8289)" fill="black"/>
<ellipse cx="27.9856" cy="21.0048" rx="3" ry="5" transform="rotate(-8.40677 27.9856 21.0048)" fill="black"/>
<ellipse cx="14.2197" cy="28.0412" rx="3.07853" ry="1.51856" fill="#FDCECE"/>
<ellipse cx="34.4598" cy="25.5505" rx="3.25304" ry="1.75961" fill="#FDCECE"/>
</svg>
