<svg width="55" height="55" viewBox="0 0 55 55" fill="none" xmlns="http://www.w3.org/2000/svg">
<path d="M47.118 32.0646L49.1565 31.4758L47.4048 30.2783L40.9491 25.8654C40.9245 25.8336 40.8951 25.7954 40.8612 25.7509C40.7441 25.5971 40.5737 25.369 40.3654 25.0773C39.9482 24.4933 39.3807 23.6573 38.783 22.6544C37.5775 20.6318 36.2929 18.0022 35.8244 15.425C34.6909 9.19126 28.3071 6.5429 22.5553 7.06578C19.7156 7.32393 17.2091 7.98769 15.1947 9.30913C13.1553 10.6469 11.6945 12.6105 10.8827 15.3165C10.0797 17.9933 10.0125 21.2769 10.3039 24.375C10.5966 27.4866 11.2604 30.5048 11.9875 32.6935C12.7134 34.8783 14.4979 38.7479 16.07 42.0162C16.8619 43.6626 17.6096 45.1759 18.1591 46.2775C18.4339 46.8283 18.6594 47.2765 18.8162 47.5872C18.8946 47.7425 18.9559 47.8635 18.9976 47.9457L19.0453 48.0395L19.0575 48.0637L19.0607 48.0698L19.0615 48.0714L19.0617 48.0719C19.0618 48.072 19.0618 48.072 19.9528 47.618L19.0618 48.072L19.7445 49.4118L20.716 48.2641L24.0378 44.34L29.8769 47.931L30.9454 48.5881L31.3479 47.4L32.7306 43.3185L38.7224 44.031L40.1575 44.2017L39.8114 42.7985L38.5011 37.4864L44.982 37.0308L46.9685 36.8912L45.6701 35.3813L43.6736 33.0596L47.118 32.0646Z" fill="white" stroke="black" stroke-width="2"/>
<ellipse cx="18.8253" cy="22.2084" rx="2.5" ry="3.5" transform="rotate(-8.40677 18.8253 22.2084)" fill="black"/>
<ellipse cx="27.7921" cy="20.3843" rx="3" ry="5" transform="rotate(-8.40677 27.7921 20.3843)" fill="black"/>
<ellipse cx="14.0263" cy="27.4207" rx="3.07853" ry="1.51856" fill="#FDCECE"/>
<ellipse cx="34.2663" cy="24.93" rx="3.25304" ry="1.75961" fill="#FDCECE"/>
</svg>
