<svg width="367" height="76" viewBox="0 0 367 76" fill="none" xmlns="http://www.w3.org/2000/svg">
<rect x="10" y="10" width="55" height="55" rx="20" fill="black"/>
<path d="M82.5781 36.8594H84.0078C86.0547 36.8594 87.5938 36.4531 88.625 35.6406C89.6719 34.8281 90.1953 33.5078 90.1953 31.6797C90.1953 29.9766 89.7266 28.7188 88.7891 27.9062C87.8672 27.0938 86.4141 26.6875 84.4297 26.6875H82.5781V36.8594ZM97.5547 31.4219C97.5547 32.9219 97.3281 34.3594 96.875 35.7344C96.4219 37.1094 95.6719 38.3203 94.625 39.3672C93.5938 40.4141 92.2266 41.25 90.5234 41.875C88.8359 42.5 86.7422 42.8125 84.2422 42.8125H82.5781V55H75.3125V20.7344H84.8281C87.0312 20.7344 88.9297 20.9844 90.5234 21.4844C92.1328 21.9688 93.4531 22.6719 94.4844 23.5938C95.5312 24.5 96.3047 25.6172 96.8047 26.9453C97.3047 28.2578 97.5547 29.75 97.5547 31.4219ZM103.18 22.0234C103.18 21.3516 103.281 20.7969 103.484 20.3594C103.688 19.9062 103.961 19.5469 104.305 19.2812C104.664 19 105.078 18.8047 105.547 18.6953C106.031 18.5859 106.539 18.5312 107.07 18.5312C107.602 18.5312 108.102 18.5859 108.57 18.6953C109.039 18.8047 109.445 19 109.789 19.2812C110.148 19.5469 110.43 19.9062 110.633 20.3594C110.852 20.7969 110.961 21.3516 110.961 22.0234C110.961 22.6797 110.852 23.2344 110.633 23.6875C110.43 24.1406 110.148 24.5078 109.789 24.7891C109.445 25.0547 109.039 25.25 108.57 25.375C108.102 25.4844 107.602 25.5391 107.07 25.5391C106.539 25.5391 106.031 25.4844 105.547 25.375C105.078 25.25 104.664 25.0547 104.305 24.7891C103.961 24.5078 103.688 24.1406 103.484 23.6875C103.281 23.2344 103.18 22.6797 103.18 22.0234ZM110.633 55H103.484V28.7969H110.633V55ZM123.523 41.6172L115.086 28.7969H123.195L127.555 36.6719L131.984 28.7969H140.094L131.539 41.6172L140.469 55H132.359L127.555 46.5156L122.75 55H114.641L123.523 41.6172ZM155.047 33.3906C153.781 33.3906 152.727 33.8359 151.883 34.7266C151.055 35.6172 150.578 37.0156 150.453 38.9219H159.57C159.555 38.125 159.453 37.3906 159.266 36.7188C159.078 36.0469 158.797 35.4688 158.422 34.9844C158.047 34.4844 157.578 34.0938 157.016 33.8125C156.453 33.5312 155.797 33.3906 155.047 33.3906ZM155.961 55.4688C154.086 55.4688 152.359 55.1953 150.781 54.6484C149.203 54.1016 147.844 53.2812 146.703 52.1875C145.562 51.0781 144.672 49.6875 144.031 48.0156C143.406 46.3281 143.094 44.3516 143.094 42.0859C143.094 39.7891 143.383 37.7812 143.961 36.0625C144.539 34.3438 145.344 32.9141 146.375 31.7734C147.422 30.6172 148.672 29.75 150.125 29.1719C151.594 28.5938 153.219 28.3047 155 28.3047C156.734 28.3047 158.297 28.5703 159.688 29.1016C161.094 29.6172 162.281 30.3828 163.25 31.3984C164.234 32.4141 164.984 33.6641 165.5 35.1484C166.031 36.6172 166.297 38.3047 166.297 40.2109V43.6797H150.312C150.344 44.6797 150.5 45.5859 150.781 46.3984C151.078 47.1953 151.484 47.875 152 48.4375C152.531 48.9844 153.164 49.4062 153.898 49.7031C154.648 50 155.5 50.1484 156.453 50.1484C157.25 50.1484 158 50.1094 158.703 50.0312C159.422 49.9375 160.117 49.8047 160.789 49.6328C161.461 49.4609 162.125 49.25 162.781 49C163.438 48.7344 164.109 48.4297 164.797 48.0859V53.6172C164.172 53.9453 163.539 54.2266 162.898 54.4609C162.273 54.6797 161.609 54.8672 160.906 55.0234C160.203 55.1797 159.445 55.2891 158.633 55.3516C157.82 55.4297 156.93 55.4688 155.961 55.4688ZM179.492 55H172.344V18.5312H179.492V55ZM218.82 45.4844C218.82 47.0156 218.555 48.3984 218.023 49.6328C217.508 50.8516 216.742 51.8984 215.727 52.7734C214.727 53.6328 213.492 54.2969 212.023 54.7656C210.57 55.2344 208.898 55.4688 207.008 55.4688C205.352 55.4688 203.75 55.2969 202.203 54.9531C200.672 54.6094 199.25 54.0938 197.938 53.4062V46.6562C198.688 47.0156 199.445 47.3672 200.211 47.7109C200.977 48.0391 201.75 48.3359 202.531 48.6016C203.328 48.8672 204.117 49.0781 204.898 49.2344C205.695 49.3906 206.484 49.4688 207.266 49.4688C208.062 49.4688 208.742 49.3828 209.305 49.2109C209.883 49.0234 210.344 48.7734 210.688 48.4609C211.047 48.1328 211.305 47.75 211.461 47.3125C211.633 46.8594 211.719 46.3672 211.719 45.8359C211.719 45.1953 211.578 44.6328 211.297 44.1484C211.031 43.6484 210.648 43.1875 210.148 42.7656C209.664 42.3281 209.07 41.9062 208.367 41.5C207.68 41.0938 206.906 40.6641 206.047 40.2109C205.328 39.8359 204.523 39.3828 203.633 38.8516C202.742 38.3203 201.898 37.6641 201.102 36.8828C200.32 36.0859 199.664 35.1328 199.133 34.0234C198.602 32.8984 198.336 31.5547 198.336 29.9922C198.336 28.4609 198.586 27.0938 199.086 25.8906C199.602 24.6719 200.328 23.6484 201.266 22.8203C202.203 21.9766 203.336 21.3359 204.664 20.8984C206.008 20.4609 207.508 20.2422 209.164 20.2422C209.992 20.2422 210.797 20.2969 211.578 20.4062C212.375 20.5156 213.156 20.6719 213.922 20.875C214.703 21.0781 215.484 21.3281 216.266 21.625C217.047 21.9219 217.852 22.2656 218.68 22.6562L216.336 28.3047C215.633 27.9766 214.977 27.6875 214.367 27.4375C213.758 27.1875 213.164 26.9766 212.586 26.8047C212.008 26.6328 211.438 26.5078 210.875 26.4297C210.328 26.3359 209.773 26.2891 209.211 26.2891C207.992 26.2891 207.055 26.6172 206.398 27.2734C205.758 27.9141 205.438 28.7734 205.438 29.8516C205.438 30.4297 205.531 30.9453 205.719 31.3984C205.922 31.8359 206.234 32.25 206.656 32.6406C207.094 33.0312 207.648 33.4297 208.32 33.8359C209.008 34.2422 209.836 34.7031 210.805 35.2188C211.977 35.8438 213.055 36.4844 214.039 37.1406C215.023 37.7812 215.867 38.5 216.57 39.2969C217.289 40.0781 217.844 40.9688 218.234 41.9688C218.625 42.9688 218.82 44.1406 218.82 45.4844ZM235.297 49.7734C236 49.7734 236.664 49.6953 237.289 49.5391C237.93 49.3828 238.578 49.1875 239.234 48.9531V54.2734C238.562 54.6172 237.727 54.8984 236.727 55.1172C235.742 55.3516 234.664 55.4688 233.492 55.4688C232.352 55.4688 231.289 55.3359 230.305 55.0703C229.32 54.8047 228.469 54.3438 227.75 53.6875C227.031 53.0156 226.461 52.125 226.039 51.0156C225.633 49.8906 225.43 48.4844 225.43 46.7969V34.1641H222.008V31.1406L225.945 28.75L228.008 23.2188H232.578V28.7969H238.953V34.1641H232.578V46.7969C232.578 47.8125 232.828 48.5625 233.328 49.0469C233.828 49.5312 234.484 49.7734 235.297 49.7734ZM250.484 41.8516C250.484 44.4609 250.852 46.4297 251.586 47.7578C252.32 49.0703 253.516 49.7266 255.172 49.7266C256.812 49.7266 258 49.0625 258.734 47.7344C259.469 46.4062 259.836 44.4453 259.836 41.8516C259.836 39.2422 259.469 37.2969 258.734 36.0156C258 34.7188 256.797 34.0703 255.125 34.0703C253.484 34.0703 252.297 34.7188 251.562 36.0156C250.844 37.2969 250.484 39.2422 250.484 41.8516ZM267.125 41.8516C267.125 44.0391 266.844 45.9766 266.281 47.6641C265.734 49.3516 264.938 50.7734 263.891 51.9297C262.859 53.0859 261.594 53.9688 260.094 54.5781C258.609 55.1719 256.938 55.4688 255.078 55.4688C253.344 55.4688 251.75 55.1719 250.297 54.5781C248.844 53.9688 247.586 53.0859 246.523 51.9297C245.477 50.7734 244.656 49.3516 244.062 47.6641C243.469 45.9766 243.172 44.0391 243.172 41.8516C243.172 39.6797 243.445 37.75 243.992 36.0625C244.555 34.375 245.352 32.9609 246.383 31.8203C247.43 30.6641 248.695 29.7891 250.18 29.1953C251.664 28.6016 253.344 28.3047 255.219 28.3047C256.953 28.3047 258.547 28.6016 260 29.1953C261.453 29.7891 262.703 30.6641 263.75 31.8203C264.812 32.9609 265.641 34.375 266.234 36.0625C266.828 37.75 267.125 39.6797 267.125 41.8516ZM286.977 28.3047C287.164 28.3047 287.367 28.3125 287.586 28.3281C287.82 28.3281 288.039 28.3438 288.242 28.375C288.461 28.3906 288.656 28.4141 288.828 28.4453C289.016 28.4609 289.156 28.4844 289.25 28.5156V35.2188C289.125 35.1875 288.953 35.1562 288.734 35.125C288.516 35.0938 288.281 35.0703 288.031 35.0547C287.797 35.0234 287.562 35.0078 287.328 35.0078C287.094 34.9922 286.898 34.9844 286.742 34.9844C285.82 34.9844 284.969 35.1016 284.188 35.3359C283.422 35.5703 282.758 35.9531 282.195 36.4844C281.648 37 281.219 37.6875 280.906 38.5469C280.609 39.3906 280.461 40.4297 280.461 41.6641V55H273.312V28.7969H278.727L279.781 32.7344H280.133C280.508 32.0625 280.914 31.4531 281.352 30.9062C281.789 30.3594 282.273 29.8984 282.805 29.5234C283.352 29.1328 283.961 28.8359 284.633 28.6328C285.32 28.4141 286.102 28.3047 286.977 28.3047ZM293.867 22.0234C293.867 21.3516 293.969 20.7969 294.172 20.3594C294.375 19.9062 294.648 19.5469 294.992 19.2812C295.352 19 295.766 18.8047 296.234 18.6953C296.719 18.5859 297.227 18.5312 297.758 18.5312C298.289 18.5312 298.789 18.5859 299.258 18.6953C299.727 18.8047 300.133 19 300.477 19.2812C300.836 19.5469 301.117 19.9062 301.32 20.3594C301.539 20.7969 301.648 21.3516 301.648 22.0234C301.648 22.6797 301.539 23.2344 301.32 23.6875C301.117 24.1406 300.836 24.5078 300.477 24.7891C300.133 25.0547 299.727 25.25 299.258 25.375C298.789 25.4844 298.289 25.5391 297.758 25.5391C297.227 25.5391 296.719 25.4844 296.234 25.375C295.766 25.25 295.352 25.0547 294.992 24.7891C294.648 24.5078 294.375 24.1406 294.172 23.6875C293.969 23.2344 293.867 22.6797 293.867 22.0234ZM301.32 55H294.172V28.7969H301.32V55ZM319.438 33.3906C318.172 33.3906 317.117 33.8359 316.273 34.7266C315.445 35.6172 314.969 37.0156 314.844 38.9219H323.961C323.945 38.125 323.844 37.3906 323.656 36.7188C323.469 36.0469 323.188 35.4688 322.812 34.9844C322.438 34.4844 321.969 34.0938 321.406 33.8125C320.844 33.5312 320.188 33.3906 319.438 33.3906ZM320.352 55.4688C318.477 55.4688 316.75 55.1953 315.172 54.6484C313.594 54.1016 312.234 53.2812 311.094 52.1875C309.953 51.0781 309.062 49.6875 308.422 48.0156C307.797 46.3281 307.484 44.3516 307.484 42.0859C307.484 39.7891 307.773 37.7812 308.352 36.0625C308.93 34.3438 309.734 32.9141 310.766 31.7734C311.812 30.6172 313.062 29.75 314.516 29.1719C315.984 28.5938 317.609 28.3047 319.391 28.3047C321.125 28.3047 322.688 28.5703 324.078 29.1016C325.484 29.6172 326.672 30.3828 327.641 31.3984C328.625 32.4141 329.375 33.6641 329.891 35.1484C330.422 36.6172 330.688 38.3047 330.688 40.2109V43.6797H314.703C314.734 44.6797 314.891 45.5859 315.172 46.3984C315.469 47.1953 315.875 47.875 316.391 48.4375C316.922 48.9844 317.555 49.4062 318.289 49.7031C319.039 50 319.891 50.1484 320.844 50.1484C321.641 50.1484 322.391 50.1094 323.094 50.0312C323.812 49.9375 324.508 49.8047 325.18 49.6328C325.852 49.4609 326.516 49.25 327.172 49C327.828 48.7344 328.5 48.4297 329.188 48.0859V53.6172C328.562 53.9453 327.93 54.2266 327.289 54.4609C326.664 54.6797 326 54.8672 325.297 55.0234C324.594 55.1797 323.836 55.2891 323.023 55.3516C322.211 55.4297 321.32 55.4688 320.352 55.4688ZM354.195 47.2188C354.195 48.5938 353.945 49.7969 353.445 50.8281C352.945 51.8594 352.234 52.7188 351.312 53.4062C350.391 54.0938 349.273 54.6094 347.961 54.9531C346.648 55.2969 345.18 55.4688 343.555 55.4688C342.695 55.4688 341.898 55.4375 341.164 55.375C340.43 55.3281 339.734 55.2422 339.078 55.1172C338.422 54.9922 337.789 54.8359 337.18 54.6484C336.57 54.4609 335.953 54.2266 335.328 53.9453V48.0391C335.984 48.3672 336.672 48.6641 337.391 48.9297C338.125 49.1953 338.852 49.4297 339.57 49.6328C340.289 49.8203 340.984 49.9688 341.656 50.0781C342.344 50.1875 342.977 50.2422 343.555 50.2422C344.195 50.2422 344.742 50.1875 345.195 50.0781C345.648 49.9531 346.016 49.7891 346.297 49.5859C346.594 49.3672 346.805 49.1172 346.93 48.8359C347.07 48.5391 347.141 48.2266 347.141 47.8984C347.141 47.5703 347.086 47.2812 346.977 47.0312C346.883 46.7656 346.656 46.4922 346.297 46.2109C345.938 45.9141 345.406 45.5859 344.703 45.2266C344.016 44.8516 343.086 44.3984 341.914 43.8672C340.773 43.3516 339.781 42.8438 338.938 42.3438C338.109 41.8281 337.422 41.2578 336.875 40.6328C336.344 40.0078 335.945 39.2969 335.68 38.5C335.414 37.6875 335.281 36.7266 335.281 35.6172C335.281 34.3984 335.516 33.3359 335.984 32.4297C336.453 31.5078 337.117 30.7422 337.977 30.1328C338.836 29.5234 339.867 29.0703 341.07 28.7734C342.289 28.4609 343.641 28.3047 345.125 28.3047C346.688 28.3047 348.172 28.4844 349.578 28.8438C350.984 29.2031 352.43 29.7422 353.914 30.4609L351.758 35.5234C350.57 34.9609 349.438 34.5 348.359 34.1406C347.281 33.7812 346.203 33.6016 345.125 33.6016C344.156 33.6016 343.453 33.7734 343.016 34.1172C342.594 34.4609 342.383 34.9297 342.383 35.5234C342.383 35.8359 342.438 36.1172 342.547 36.3672C342.656 36.6016 342.875 36.8516 343.203 37.1172C343.531 37.3672 343.992 37.6484 344.586 37.9609C345.18 38.2578 345.953 38.625 346.906 39.0625C348.016 39.5469 349.016 40.0312 349.906 40.5156C350.797 40.9844 351.562 41.5234 352.203 42.1328C352.844 42.7422 353.336 43.4531 353.68 44.2656C354.023 45.0781 354.195 46.0625 354.195 47.2188Z" fill="black"/>
<path d="M56.9793 41.5842L57.9986 41.2898L57.1227 40.6911L50.6025 36.2341L50.6013 36.2325C50.57 36.1926 50.5234 36.1326 50.4635 36.0539C50.3435 35.8964 50.1701 35.6642 49.9585 35.3679C49.5351 34.7752 48.9596 33.9275 48.3535 32.9104C47.1361 30.8678 45.8167 28.1781 45.3324 25.5144C44.2657 19.6476 38.2265 17.0523 32.6006 17.5637C29.8058 17.8178 27.3893 18.4675 25.4689 19.7272C23.5361 20.9951 22.1425 22.8572 21.3616 25.4602C20.5851 28.0486 20.513 31.259 20.8017 34.3282C21.0911 37.4042 21.7475 40.3851 22.4621 42.5358C23.176 44.6847 24.9452 48.5244 26.5206 51.7995C27.3112 53.4431 28.0577 54.9542 28.6065 56.0542C28.881 56.6043 29.1061 57.0518 29.2626 57.3618C29.3408 57.5169 29.402 57.6375 29.4435 57.7195L29.491 57.8129L29.5032 57.8368L29.5062 57.8429L29.507 57.8445L29.5072 57.8449C29.5073 57.845 29.5073 57.845 29.9528 57.618L29.5073 57.845L29.8487 58.5149L30.3344 57.9411L33.9338 53.689L40.1389 57.5051L40.6731 57.8337L40.8744 57.2396L42.3871 52.7741L48.7815 53.5345L49.499 53.6198L49.326 52.9183L47.8734 47.0292L54.947 46.5321L55.9403 46.4623L55.291 45.7073L52.7869 42.7953L56.9793 41.5842Z" fill="white" stroke="black"/>
<ellipse cx="28.8253" cy="32.2084" rx="2.5" ry="3.5" transform="rotate(-8.40677 28.8253 32.2084)" fill="black"/>
<ellipse cx="37.7921" cy="30.3843" rx="3" ry="5" transform="rotate(-8.40677 37.7921 30.3843)" fill="black"/>
<ellipse cx="24.0263" cy="37.4207" rx="3.07853" ry="1.51856" fill="#FDCECE"/>
<ellipse cx="44.2663" cy="34.93" rx="3.25304" ry="1.75961" fill="#FDCECE"/>
</svg>
