<svg width="347" height="56" viewBox="0 0 347 56" fill="none" xmlns="http://www.w3.org/2000/svg">
<rect width="55" height="55" rx="20" fill="black"/>
<path d="M72.5781 26.8594H74.0078C76.0547 26.8594 77.5938 26.4531 78.625 25.6406C79.6719 24.8281 80.1953 23.5078 80.1953 21.6797C80.1953 19.9766 79.7266 18.7188 78.7891 17.9062C77.8672 17.0938 76.4141 16.6875 74.4297 16.6875H72.5781V26.8594ZM87.5547 21.4219C87.5547 22.9219 87.3281 24.3594 86.875 25.7344C86.4219 27.1094 85.6719 28.3203 84.625 29.3672C83.5938 30.4141 82.2266 31.25 80.5234 31.875C78.8359 32.5 76.7422 32.8125 74.2422 32.8125H72.5781V45H65.3125V10.7344H74.8281C77.0312 10.7344 78.9297 10.9844 80.5234 11.4844C82.1328 11.9688 83.4531 12.6719 84.4844 13.5938C85.5312 14.5 86.3047 15.6172 86.8047 16.9453C87.3047 18.2578 87.5547 19.75 87.5547 21.4219ZM93.1797 12.0234C93.1797 11.3516 93.2812 10.7969 93.4844 10.3594C93.6875 9.90625 93.9609 9.54687 94.3047 9.28125C94.6641 9 95.0781 8.80469 95.5469 8.69531C96.0312 8.58594 96.5391 8.53125 97.0703 8.53125C97.6016 8.53125 98.1016 8.58594 98.5703 8.69531C99.0391 8.80469 99.4453 9 99.7891 9.28125C100.148 9.54687 100.43 9.90625 100.633 10.3594C100.852 10.7969 100.961 11.3516 100.961 12.0234C100.961 12.6797 100.852 13.2344 100.633 13.6875C100.43 14.1406 100.148 14.5078 99.7891 14.7891C99.4453 15.0547 99.0391 15.25 98.5703 15.375C98.1016 15.4844 97.6016 15.5391 97.0703 15.5391C96.5391 15.5391 96.0312 15.4844 95.5469 15.375C95.0781 15.25 94.6641 15.0547 94.3047 14.7891C93.9609 14.5078 93.6875 14.1406 93.4844 13.6875C93.2812 13.2344 93.1797 12.6797 93.1797 12.0234ZM100.633 45H93.4844V18.7969H100.633V45ZM113.523 31.6172L105.086 18.7969H113.195L117.555 26.6719L121.984 18.7969H130.094L121.539 31.6172L130.469 45H122.359L117.555 36.5156L112.75 45H104.641L113.523 31.6172ZM145.047 23.3906C143.781 23.3906 142.727 23.8359 141.883 24.7266C141.055 25.6172 140.578 27.0156 140.453 28.9219H149.57C149.555 28.125 149.453 27.3906 149.266 26.7188C149.078 26.0469 148.797 25.4688 148.422 24.9844C148.047 24.4844 147.578 24.0938 147.016 23.8125C146.453 23.5312 145.797 23.3906 145.047 23.3906ZM145.961 45.4688C144.086 45.4688 142.359 45.1953 140.781 44.6484C139.203 44.1016 137.844 43.2812 136.703 42.1875C135.562 41.0781 134.672 39.6875 134.031 38.0156C133.406 36.3281 133.094 34.3516 133.094 32.0859C133.094 29.7891 133.383 27.7812 133.961 26.0625C134.539 24.3438 135.344 22.9141 136.375 21.7734C137.422 20.6172 138.672 19.75 140.125 19.1719C141.594 18.5938 143.219 18.3047 145 18.3047C146.734 18.3047 148.297 18.5703 149.688 19.1016C151.094 19.6172 152.281 20.3828 153.25 21.3984C154.234 22.4141 154.984 23.6641 155.5 25.1484C156.031 26.6172 156.297 28.3047 156.297 30.2109V33.6797H140.312C140.344 34.6797 140.5 35.5859 140.781 36.3984C141.078 37.1953 141.484 37.875 142 38.4375C142.531 38.9844 143.164 39.4062 143.898 39.7031C144.648 40 145.5 40.1484 146.453 40.1484C147.25 40.1484 148 40.1094 148.703 40.0312C149.422 39.9375 150.117 39.8047 150.789 39.6328C151.461 39.4609 152.125 39.25 152.781 39C153.438 38.7344 154.109 38.4297 154.797 38.0859V43.6172C154.172 43.9453 153.539 44.2266 152.898 44.4609C152.273 44.6797 151.609 44.8672 150.906 45.0234C150.203 45.1797 149.445 45.2891 148.633 45.3516C147.82 45.4297 146.93 45.4688 145.961 45.4688ZM169.492 45H162.344V8.53125H169.492V45ZM208.82 35.4844C208.82 37.0156 208.555 38.3984 208.023 39.6328C207.508 40.8516 206.742 41.8984 205.727 42.7734C204.727 43.6328 203.492 44.2969 202.023 44.7656C200.57 45.2344 198.898 45.4688 197.008 45.4688C195.352 45.4688 193.75 45.2969 192.203 44.9531C190.672 44.6094 189.25 44.0938 187.938 43.4062V36.6562C188.688 37.0156 189.445 37.3672 190.211 37.7109C190.977 38.0391 191.75 38.3359 192.531 38.6016C193.328 38.8672 194.117 39.0781 194.898 39.2344C195.695 39.3906 196.484 39.4688 197.266 39.4688C198.062 39.4688 198.742 39.3828 199.305 39.2109C199.883 39.0234 200.344 38.7734 200.688 38.4609C201.047 38.1328 201.305 37.75 201.461 37.3125C201.633 36.8594 201.719 36.3672 201.719 35.8359C201.719 35.1953 201.578 34.6328 201.297 34.1484C201.031 33.6484 200.648 33.1875 200.148 32.7656C199.664 32.3281 199.07 31.9062 198.367 31.5C197.68 31.0938 196.906 30.6641 196.047 30.2109C195.328 29.8359 194.523 29.3828 193.633 28.8516C192.742 28.3203 191.898 27.6641 191.102 26.8828C190.32 26.0859 189.664 25.1328 189.133 24.0234C188.602 22.8984 188.336 21.5547 188.336 19.9922C188.336 18.4609 188.586 17.0938 189.086 15.8906C189.602 14.6719 190.328 13.6484 191.266 12.8203C192.203 11.9766 193.336 11.3359 194.664 10.8984C196.008 10.4609 197.508 10.2422 199.164 10.2422C199.992 10.2422 200.797 10.2969 201.578 10.4062C202.375 10.5156 203.156 10.6719 203.922 10.875C204.703 11.0781 205.484 11.3281 206.266 11.625C207.047 11.9219 207.852 12.2656 208.68 12.6562L206.336 18.3047C205.633 17.9766 204.977 17.6875 204.367 17.4375C203.758 17.1875 203.164 16.9766 202.586 16.8047C202.008 16.6328 201.438 16.5078 200.875 16.4297C200.328 16.3359 199.773 16.2891 199.211 16.2891C197.992 16.2891 197.055 16.6172 196.398 17.2734C195.758 17.9141 195.438 18.7734 195.438 19.8516C195.438 20.4297 195.531 20.9453 195.719 21.3984C195.922 21.8359 196.234 22.25 196.656 22.6406C197.094 23.0312 197.648 23.4297 198.32 23.8359C199.008 24.2422 199.836 24.7031 200.805 25.2188C201.977 25.8438 203.055 26.4844 204.039 27.1406C205.023 27.7812 205.867 28.5 206.57 29.2969C207.289 30.0781 207.844 30.9688 208.234 31.9688C208.625 32.9688 208.82 34.1406 208.82 35.4844ZM225.297 39.7734C226 39.7734 226.664 39.6953 227.289 39.5391C227.93 39.3828 228.578 39.1875 229.234 38.9531V44.2734C228.562 44.6172 227.727 44.8984 226.727 45.1172C225.742 45.3516 224.664 45.4688 223.492 45.4688C222.352 45.4688 221.289 45.3359 220.305 45.0703C219.32 44.8047 218.469 44.3438 217.75 43.6875C217.031 43.0156 216.461 42.125 216.039 41.0156C215.633 39.8906 215.43 38.4844 215.43 36.7969V24.1641H212.008V21.1406L215.945 18.75L218.008 13.2188H222.578V18.7969H228.953V24.1641H222.578V36.7969C222.578 37.8125 222.828 38.5625 223.328 39.0469C223.828 39.5312 224.484 39.7734 225.297 39.7734ZM240.484 31.8516C240.484 34.4609 240.852 36.4297 241.586 37.7578C242.32 39.0703 243.516 39.7266 245.172 39.7266C246.812 39.7266 248 39.0625 248.734 37.7344C249.469 36.4062 249.836 34.4453 249.836 31.8516C249.836 29.2422 249.469 27.2969 248.734 26.0156C248 24.7188 246.797 24.0703 245.125 24.0703C243.484 24.0703 242.297 24.7188 241.562 26.0156C240.844 27.2969 240.484 29.2422 240.484 31.8516ZM257.125 31.8516C257.125 34.0391 256.844 35.9766 256.281 37.6641C255.734 39.3516 254.938 40.7734 253.891 41.9297C252.859 43.0859 251.594 43.9688 250.094 44.5781C248.609 45.1719 246.938 45.4688 245.078 45.4688C243.344 45.4688 241.75 45.1719 240.297 44.5781C238.844 43.9688 237.586 43.0859 236.523 41.9297C235.477 40.7734 234.656 39.3516 234.062 37.6641C233.469 35.9766 233.172 34.0391 233.172 31.8516C233.172 29.6797 233.445 27.75 233.992 26.0625C234.555 24.375 235.352 22.9609 236.383 21.8203C237.43 20.6641 238.695 19.7891 240.18 19.1953C241.664 18.6016 243.344 18.3047 245.219 18.3047C246.953 18.3047 248.547 18.6016 250 19.1953C251.453 19.7891 252.703 20.6641 253.75 21.8203C254.812 22.9609 255.641 24.375 256.234 26.0625C256.828 27.75 257.125 29.6797 257.125 31.8516ZM276.977 18.3047C277.164 18.3047 277.367 18.3125 277.586 18.3281C277.82 18.3281 278.039 18.3438 278.242 18.375C278.461 18.3906 278.656 18.4141 278.828 18.4453C279.016 18.4609 279.156 18.4844 279.25 18.5156V25.2188C279.125 25.1875 278.953 25.1562 278.734 25.125C278.516 25.0938 278.281 25.0703 278.031 25.0547C277.797 25.0234 277.562 25.0078 277.328 25.0078C277.094 24.9922 276.898 24.9844 276.742 24.9844C275.82 24.9844 274.969 25.1016 274.188 25.3359C273.422 25.5703 272.758 25.9531 272.195 26.4844C271.648 27 271.219 27.6875 270.906 28.5469C270.609 29.3906 270.461 30.4297 270.461 31.6641V45H263.312V18.7969H268.727L269.781 22.7344H270.133C270.508 22.0625 270.914 21.4531 271.352 20.9062C271.789 20.3594 272.273 19.8984 272.805 19.5234C273.352 19.1328 273.961 18.8359 274.633 18.6328C275.32 18.4141 276.102 18.3047 276.977 18.3047ZM283.867 12.0234C283.867 11.3516 283.969 10.7969 284.172 10.3594C284.375 9.90625 284.648 9.54687 284.992 9.28125C285.352 9 285.766 8.80469 286.234 8.69531C286.719 8.58594 287.227 8.53125 287.758 8.53125C288.289 8.53125 288.789 8.58594 289.258 8.69531C289.727 8.80469 290.133 9 290.477 9.28125C290.836 9.54687 291.117 9.90625 291.32 10.3594C291.539 10.7969 291.648 11.3516 291.648 12.0234C291.648 12.6797 291.539 13.2344 291.32 13.6875C291.117 14.1406 290.836 14.5078 290.477 14.7891C290.133 15.0547 289.727 15.25 289.258 15.375C288.789 15.4844 288.289 15.5391 287.758 15.5391C287.227 15.5391 286.719 15.4844 286.234 15.375C285.766 15.25 285.352 15.0547 284.992 14.7891C284.648 14.5078 284.375 14.1406 284.172 13.6875C283.969 13.2344 283.867 12.6797 283.867 12.0234ZM291.32 45H284.172V18.7969H291.32V45ZM309.438 23.3906C308.172 23.3906 307.117 23.8359 306.273 24.7266C305.445 25.6172 304.969 27.0156 304.844 28.9219H313.961C313.945 28.125 313.844 27.3906 313.656 26.7188C313.469 26.0469 313.188 25.4688 312.812 24.9844C312.438 24.4844 311.969 24.0938 311.406 23.8125C310.844 23.5312 310.188 23.3906 309.438 23.3906ZM310.352 45.4688C308.477 45.4688 306.75 45.1953 305.172 44.6484C303.594 44.1016 302.234 43.2812 301.094 42.1875C299.953 41.0781 299.062 39.6875 298.422 38.0156C297.797 36.3281 297.484 34.3516 297.484 32.0859C297.484 29.7891 297.773 27.7812 298.352 26.0625C298.93 24.3438 299.734 22.9141 300.766 21.7734C301.812 20.6172 303.062 19.75 304.516 19.1719C305.984 18.5938 307.609 18.3047 309.391 18.3047C311.125 18.3047 312.688 18.5703 314.078 19.1016C315.484 19.6172 316.672 20.3828 317.641 21.3984C318.625 22.4141 319.375 23.6641 319.891 25.1484C320.422 26.6172 320.688 28.3047 320.688 30.2109V33.6797H304.703C304.734 34.6797 304.891 35.5859 305.172 36.3984C305.469 37.1953 305.875 37.875 306.391 38.4375C306.922 38.9844 307.555 39.4062 308.289 39.7031C309.039 40 309.891 40.1484 310.844 40.1484C311.641 40.1484 312.391 40.1094 313.094 40.0312C313.812 39.9375 314.508 39.8047 315.18 39.6328C315.852 39.4609 316.516 39.25 317.172 39C317.828 38.7344 318.5 38.4297 319.188 38.0859V43.6172C318.562 43.9453 317.93 44.2266 317.289 44.4609C316.664 44.6797 316 44.8672 315.297 45.0234C314.594 45.1797 313.836 45.2891 313.023 45.3516C312.211 45.4297 311.32 45.4688 310.352 45.4688ZM344.195 37.2188C344.195 38.5938 343.945 39.7969 343.445 40.8281C342.945 41.8594 342.234 42.7188 341.312 43.4062C340.391 44.0938 339.273 44.6094 337.961 44.9531C336.648 45.2969 335.18 45.4688 333.555 45.4688C332.695 45.4688 331.898 45.4375 331.164 45.375C330.43 45.3281 329.734 45.2422 329.078 45.1172C328.422 44.9922 327.789 44.8359 327.18 44.6484C326.57 44.4609 325.953 44.2266 325.328 43.9453V38.0391C325.984 38.3672 326.672 38.6641 327.391 38.9297C328.125 39.1953 328.852 39.4297 329.57 39.6328C330.289 39.8203 330.984 39.9688 331.656 40.0781C332.344 40.1875 332.977 40.2422 333.555 40.2422C334.195 40.2422 334.742 40.1875 335.195 40.0781C335.648 39.9531 336.016 39.7891 336.297 39.5859C336.594 39.3672 336.805 39.1172 336.93 38.8359C337.07 38.5391 337.141 38.2266 337.141 37.8984C337.141 37.5703 337.086 37.2812 336.977 37.0312C336.883 36.7656 336.656 36.4922 336.297 36.2109C335.938 35.9141 335.406 35.5859 334.703 35.2266C334.016 34.8516 333.086 34.3984 331.914 33.8672C330.773 33.3516 329.781 32.8438 328.938 32.3438C328.109 31.8281 327.422 31.2578 326.875 30.6328C326.344 30.0078 325.945 29.2969 325.68 28.5C325.414 27.6875 325.281 26.7266 325.281 25.6172C325.281 24.3984 325.516 23.3359 325.984 22.4297C326.453 21.5078 327.117 20.7422 327.977 20.1328C328.836 19.5234 329.867 19.0703 331.07 18.7734C332.289 18.4609 333.641 18.3047 335.125 18.3047C336.688 18.3047 338.172 18.4844 339.578 18.8438C340.984 19.2031 342.43 19.7422 343.914 20.4609L341.758 25.5234C340.57 24.9609 339.438 24.5 338.359 24.1406C337.281 23.7812 336.203 23.6016 335.125 23.6016C334.156 23.6016 333.453 23.7734 333.016 24.1172C332.594 24.4609 332.383 24.9297 332.383 25.5234C332.383 25.8359 332.438 26.1172 332.547 26.3672C332.656 26.6016 332.875 26.8516 333.203 27.1172C333.531 27.3672 333.992 27.6484 334.586 27.9609C335.18 28.2578 335.953 28.625 336.906 29.0625C338.016 29.5469 339.016 30.0312 339.906 30.5156C340.797 30.9844 341.562 31.5234 342.203 32.1328C342.844 32.7422 343.336 33.4531 343.68 34.2656C344.023 35.0781 344.195 36.0625 344.195 37.2188Z" fill="black"/>
<path d="M19.5073 47.845L19.8486 48.5149L20.3344 47.9411L23.9338 43.689L30.1389 47.5051L30.6731 47.8337L30.8744 47.2396L32.3871 42.7741L38.7815 43.5345L39.499 43.6198L39.326 42.9183L37.8734 37.0292L44.947 36.5321L45.9402 36.4623L45.291 35.7073L42.7869 32.7953L46.9793 31.5842L47.9985 31.2898L47.1227 30.6911L40.6025 26.2341L40.6012 26.2325C40.57 26.1926 40.5234 26.1326 40.4634 26.0539C40.3435 25.8964 40.1701 25.6642 39.9585 25.3679C39.5351 24.7752 38.9596 23.9275 38.3534 22.9104C37.1361 20.8678 35.8167 18.1781 35.3324 15.5144C34.2657 9.64757 28.2265 7.0523 22.6006 7.56373C19.8057 7.8178 17.3893 8.46746 15.4689 9.7272C13.5361 10.9951 12.1425 12.8572 11.3616 15.4602C10.5851 18.0486 10.513 21.259 10.8017 24.3282C11.0911 27.4042 11.7475 30.3851 12.462 32.5358C13.176 34.6847 14.9452 38.5244 16.5206 41.7995C17.3112 43.4431 18.0577 44.9542 18.6065 46.0542C18.881 46.6043 19.106 47.0518 19.2625 47.3618C19.3408 47.5169 19.4019 47.6375 19.4435 47.7195L19.491 47.8129L19.5031 47.8368L19.5062 47.8429L19.507 47.8445L19.5072 47.8449C19.5073 47.845 19.5073 47.845 19.9528 47.618L19.5073 47.845Z" fill="white" stroke="black"/>
<ellipse cx="18.8253" cy="22.2084" rx="2.5" ry="3.5" transform="rotate(-8.40677 18.8253 22.2084)" fill="black"/>
<ellipse cx="27.7921" cy="20.3843" rx="3" ry="5" transform="rotate(-8.40677 27.7921 20.3843)" fill="black"/>
<ellipse cx="14.0263" cy="27.4207" rx="3.07853" ry="1.51856" fill="#FDCECE"/>
<ellipse cx="34.2663" cy="24.93" rx="3.25304" ry="1.75961" fill="#FDCECE"/>
</svg>
